<svg width="66" height="66" viewBox="0 0 66 66" fill="none" xmlns="http://www.w3.org/2000/svg">
<path d="M22.9446 40.1221C24.2256 38.7483 25.7746 37.6516 27.4959 36.8995C29.2172 36.1475 31.073 35.7567 32.9514 35.7501C34.8298 35.7436 36.6894 36.1221 38.4159 36.8621C40.1424 37.6021 41.6995 38.6877 42.9901 40.0525M16.9102 31.7457C18.9599 29.5477 21.4382 27.793 24.1923 26.5897C26.9463 25.3865 29.9199 24.7606 32.9253 24.7501C35.9308 24.7396 38.905 25.3453 41.6674 26.5293C44.4298 27.7133 46.9191 29.4482 48.9841 31.6318M32.9993 52.2501C31.4805 52.2501 30.2493 51.0189 30.2493 49.5001C30.2493 47.9813 31.4805 46.7501 32.9993 46.7501C34.518 46.7501 35.7493 47.9813 35.7493 49.5001C35.7493 51.0189 34.518 52.2501 32.9993 52.2501Z" stroke="white" stroke-width="2" stroke-linecap="round" stroke-linejoin="round"/>
</svg>
