<svg width="66" height="66" viewBox="0 0 66 66" fill="none" xmlns="http://www.w3.org/2000/svg">
<path d="M49.0894 31.7465C46.8808 29.378 44.1765 27.5264 41.1697 26.3237M57.1339 24.2447C53.821 20.692 49.7646 17.9146 45.2544 16.1106C40.7441 14.3066 35.8916 13.52 31.0425 13.8081M22.9429 40.1238C24.6284 38.3163 26.7701 36.9964 29.1424 36.3032C31.5147 35.61 34.0302 35.5671 36.4238 36.1827M16.9111 31.7456C19.5191 28.9488 22.8111 26.8802 26.4624 25.7437M8.86523 24.2441C11.3344 21.5963 14.2224 19.3728 17.4136 17.6628M12.1389 11L51.0298 49.8909M33.0002 52.25C31.4815 52.25 30.2502 51.0188 30.2502 49.5C30.2502 47.9812 31.4815 46.75 33.0002 46.75C34.519 46.75 35.7502 47.9812 35.7502 49.5C35.7502 51.0188 34.519 52.25 33.0002 52.25Z" stroke="white" stroke-width="2" stroke-linecap="round" stroke-linejoin="round"/>
</svg>
