<?xml version="1.0" encoding="UTF-8" standalone="no"?>
<svg
   width="24"
   height="24"
   viewBox="0 0 24 24"
   fill="none"
   version="1.1"
   id="svg2"
   sodipodi:docname="Stop_Circle.svg"
   inkscape:version="1.4 (86a8ad7, 2024-10-11)"
   xmlns:inkscape="http://www.inkscape.org/namespaces/inkscape"
   xmlns:sodipodi="http://sodipodi.sourceforge.net/DTD/sodipodi-0.dtd"
   xmlns="http://www.w3.org/2000/svg"
   xmlns:svg="http://www.w3.org/2000/svg">
  <defs
     id="defs2" />
  <sodipodi:namedview
     id="namedview2"
     pagecolor="#505050"
     bordercolor="#ffffff"
     borderopacity="1"
     inkscape:showpageshadow="0"
     inkscape:pageopacity="0"
     inkscape:pagecheckerboard="1"
     inkscape:deskcolor="#505050"
     inkscape:zoom="24.041631"
     inkscape:cx="8.7348485"
     inkscape:cy="9.8579004"
     inkscape:window-width="2560"
     inkscape:window-height="1506"
     inkscape:window-x="-11"
     inkscape:window-y="-11"
     inkscape:window-maximized="1"
     inkscape:current-layer="svg2" />
  <path
     d="m 1.1055399,12.000003 c 0,6.01689 4.877619,10.894463 10.8944601,10.894463 6.01689,0 10.89446,-4.877573 10.89446,-10.894463 C 22.89446,5.9831605 18.01689,1.10554 12,1.10554 5.9831589,1.10554 1.1055399,5.9831605 1.1055399,12.000003 Z"
     stroke="#ffffff"
     stroke-width="2.21108"
     stroke-linecap="round"
     stroke-linejoin="round"
     id="path1" />
  <path
     d="M 16.841983,14.25895 V 9.7397649 c 0,-0.903837 -6.46e-4,-1.355416 -0.176572,-1.700666 C 16.510791,7.7354098 16.264657,7.4886786 15.961064,7.3339287 15.615831,7.1580195 15.162942,7.1580195 14.258945,7.1580195 H 9.7397629 c -0.903837,0 -1.355416,0 -1.700666,0.1759092 -0.303689,0.1547499 -0.55042,0.4014811 -0.70517,0.7051702 -0.175909,0.34525 -0.175909,0.796829 -0.175909,1.700666 V 14.25895 c 0,0.903998 0,1.356885 0.175909,1.702119 0.15475,0.303592 0.401481,0.549726 0.70517,0.704347 0.34525,0.175924 0.796829,0.176571 1.700666,0.176571 h 4.5191821 c 0.903997,0 1.356886,-6.47e-4 1.702119,-0.176571 0.303593,-0.154621 0.549727,-0.400755 0.704347,-0.704347 0.175926,-0.345234 0.176572,-0.798121 0.176572,-1.702119 z"
     stroke="white"
     stroke-width="3.22799"
     stroke-linecap="round"
     stroke-linejoin="round"
     id="path2"
     style="fill:#c4374c;fill-opacity:1;stroke:none;stroke-opacity:1" />
</svg>
