<svg
        viewBox="0 0 184 72"
        xmlns="http://www.w3.org/2000/svg"
        aria-hidden="true"
>
    <g transform="matrix(0.26458333,0,0,0.26458333,-43.042127,-81.069814)">
        <path
                d="m 275.14074,307.17754 c -22.14336,-0.22236 -110.77505,0.70539 -111.70313,29.78515 -1.06066,33.23402 94.04492,32.88086 94.04492,32.88086 h 36.41602 c 0,0 97.22848,-1.41464 97.58203,-32.52734 0.35356,-31.1127 -111.36914,-30.05078 -111.36914,-30.05078 0,0 -1.80737,-0.0561 -4.9707,-0.0879 z m -1.39454,18.82617 c 0,0 91.57027,-0.35288 91.92383,12.02148 0.35355,12.37437 -73.53906,14.14063 -73.53906,14.14063 l 33.58789,-0.70703 c 0,0 -71.76957,-2.82703 -71.41602,-13.08008 0.35356,-10.25305 86.61914,-12.375 86.61914,-12.375 z"
                fill="#FFFFFF"
                stroke="#000"
                stroke-width="1.5"
                vector-effect="non-scaling-stroke"
        />
        <path
                d="m 741.76957,307.17754 c 22.14336,-0.22236 110.77505,0.70539 111.70313,29.78515 1.06066,33.23402 -94.04492,32.88086 -94.04492,32.88086 h -36.41602 c 0,0 -97.22848,-1.41464 -97.58203,-32.52734 -0.35356,-31.1127 111.36914,-30.05078 111.36914,-30.05078 0,0 1.80737,-0.0561 4.9707,-0.0879 z m 1.39454,18.82617 c 0,0 -91.57027,-0.35288 -91.92383,12.02148 -0.35355,12.37437 73.53906,14.14063 73.53906,14.14063 l 33.58789,-0.70703 c 0,0 71.76957,-2.82703 71.41602,-13.08008 -0.35356,-10.25305 -86.61914,-12.375 -86.61914,-12.375 z"
                fill="#FFFFFF"
                stroke="#000"
                stroke-width="1.5"
                vector-effect="non-scaling-stroke"
        />
        <path
                d="m 510.38458,341.92507 c 0,0 -55.70474,0.0263 -71.03321,45.77344 l -142.39257,-0.53125 -3.00586,-43.57422 c 0,0 0.17702,-7.77934 -15.99805,-7.42578 -16.17507,0.35355 -14.9375,7.95508 -14.9375,7.95508 l -0.70703,6.00976 -3.80078,38.80274 c -7.77818,-0.0884 -11.49024,6.80664 -11.49024,6.80664 0,0 -0.001,10.16526 -0.0898,17.23633 -0.0884,7.07107 9.54663,20.85886 30.05273,20.94726 20.5061,0.0884 22.05078,-13.45898 22.05078,-13.45898 l 124,14.25 8,14.5 c 0,0 -80.20198,80.07986 -84.04687,84.45508 -3.84489,4.37522 -2.91602,8.35351 -2.91602,8.35351 0.35355,30.05204 36.83789,33.81641 45.40039,33.44141 8.5625,-0.375 6.39454,-8.51563 6.39454,-8.51563 l -24.04102,-22.27539 78.31055,-75.1289 c 20.34317,16.12799 60.18469,15.84037 60.25586,15.83984 v 0.008 c 0,0 39.91794,0.30257 60.27929,-15.83984 l 78.31055,75.1289 -24.04102,22.2754 c 0,0 -2.16796,8.14062 6.39454,8.51562 8.5625,0.375 45.04684,-3.38937 45.40039,-33.44141 0,0 0.92887,-3.97829 -2.91602,-8.35351 -3.84489,-4.37522 -84.04687,-84.45508 -84.04687,-84.45508 l 8,-14.5 124,-14.25 c 0,0 1.54468,13.54738 22.05078,13.45898 20.5061,-0.0884 30.14113,-13.87619 30.05273,-20.94726 -0.0888,-7.07107 -0.0898,-17.23633 -0.0898,-17.23633 0,0 -3.71206,-6.89504 -11.49024,-6.80664 l -3.80078,-38.80273 -0.70703,-6.00977 c 0,0 1.23757,-7.60153 -14.9375,-7.95508 -16.17507,-0.35356 -15.99805,7.42578 -15.99805,7.42578 l -3.00586,43.57422 -142.39257,0.53125 c -15.32847,-45.74714 -71.03321,-45.77344 -71.03321,-45.77344 m 50.97643,89.79121 c 0.0353,11.04438 -102.17448,10.56747 -101.98836,-0.008 0.18612,-10.57547 101.95302,-11.03638 101.98836,0.008 z"
                fill="#FFFFFF"
                stroke="#313131"
                stroke-width="1.5"
                vector-effect="non-scaling-stroke"
        />
    </g>
</svg>