<svg width="24" height="24" viewBox="0 0 24 24" fill="none" xmlns="http://www.w3.org/2000/svg">
<path d="M10 15.0005L12 13.0005M12 13.0005L14 11.0006M12 13.0005L10 11.0006M12 13.0005L14 15.0005M4 16.8007V11.4527C4 10.9184 4 10.6511 4.06497 10.4024C4.12255 10.1821 4.2173 9.97356 4.34521 9.78513C4.48955 9.5725 4.69064 9.39618 5.09277 9.04432L9.89436 4.84292C10.6398 4.19063 11.0126 3.86446 11.4324 3.74031C11.8026 3.63083 12.1972 3.63083 12.5674 3.74031C12.9875 3.86455 13.3608 4.19103 14.1074 4.84431L18.9074 9.04431C19.3096 9.39618 19.5102 9.5725 19.6546 9.78513C19.7825 9.97356 19.8775 10.1821 19.9351 10.4024C20 10.6509 20 10.9189 20 11.4527V16.8041C20 17.9221 20 18.4816 19.7822 18.909C19.5905 19.2854 19.2842 19.591 18.9079 19.7828C18.4805 20.0006 17.9215 20.0006 16.8036 20.0006H7.19691C6.07899 20.0006 5.5192 20.0006 5.0918 19.7828C4.71547 19.591 4.40973 19.2854 4.21799 18.909C4 18.4812 4 17.9208 4 16.8007Z" stroke="white" stroke-width="2" stroke-linecap="round" stroke-linejoin="round"/>
</svg>
