<svg width="24" height="24" viewBox="0 0 24 24" fill="none" xmlns="http://www.w3.org/2000/svg">
<path d="M4.74791 7.64551L4.41669 11.289C4.36763 11.8286 4.34289 12.1006 4.3878 12.3589C4.42792 12.5896 4.50806 12.8117 4.62496 13.0147C4.7563 13.2427 4.95043 13.4368 5.33647 13.8228L10.512 18.9983C11.299 19.7854 11.6927 20.1791 12.148 20.327C12.5496 20.4575 12.983 20.4578 13.3847 20.3273C13.8414 20.1789 14.2382 19.7826 15.0302 18.9906L18.99 15.0308C19.7821 14.2387 20.1774 13.8429 20.3258 13.3862C20.4563 12.9845 20.4555 12.5516 20.325 12.15C20.1766 11.6933 19.7819 11.2975 18.9898 10.5055L13.8271 5.34278C13.4375 4.95321 13.2427 4.75841 13.0136 4.62647C12.8107 4.50957 12.5886 4.42909 12.3579 4.38897C12.0974 4.34368 11.823 4.36858 11.2743 4.41846L7.64449 4.74844C6.69973 4.83433 6.22705 4.87746 5.85738 5.08303C5.53145 5.26428 5.26277 5.53296 5.08152 5.85889C4.87698 6.22672 4.83432 6.69604 4.74929 7.6314L4.74791 7.64551Z" stroke="white" stroke-width="2" stroke-linecap="round" stroke-linejoin="round"/>
<path d="M9.71259 9.71346C10.1031 9.32293 10.1031 8.68977 9.71259 8.29924C9.32206 7.90872 8.68845 7.90872 8.29792 8.29924C7.9074 8.68977 7.90702 9.32278 8.29755 9.71331C8.68807 10.1038 9.32206 10.104 9.71259 9.71346Z" stroke="white" stroke-width="2" stroke-linecap="round" stroke-linejoin="round"/>
</svg>
